# xmcd
#
# Track frame offsets:
#	150
#	17518
#	35317
#	51105
#	68770
#	84251
#	102688
#	119316
#	137317
#	153427
#	170971
#	188667
#	205984
#	222433
# Disc length: 3144 seconds
# Revision: 1
# Processed by: cddbd v1.5.2PL0 Copyright (c) Steve Scherf et al.
#
# Submitted via: libkcddb 0.31
#
DISCID=be0c460e
DTITLE=Boi Pirilampo - Boi Pirilampo Arte Popular do Maranhão
DYEAR=2003
DGENRE=
TTITLE0=Vovô - Balanceando
TTITLE1=Zacarias - Mimoso
TTITLE2=Zacarias e Samy - Fogo de Amor
TTITLE3=Vovô - Papagaio de Sonhos
TTITLE4=Vovô - Nossos Momentos
TTITLE5=Vovô - Sendeiro
TTITLE6=Godinho - Meu Dengo
TTITLE7=Samy - Ilha Rebelde
TTITLE8=Vovô - Promessas
TTITLE9=Vovô - Trincheira
TTITLE10=Samy - Vento
TTITLE11=Zacarias - Urrô na Floresta
TTITLE12=Zacarias - Adeus Morena
TTITLE13=Samy - Assombração
EXTD=
EXTT0=Luis Moraes
EXTT1=Ronald Pinheiro
EXTT2=R.D e Augusto Bastos
EXTT3=Vovô
EXTT4=R.D e Vovô
EXTT5=Rodrigo de Sousa
EXTT6=R.D e Godinho
EXTT7=R.D e Vovô
EXTT8=Veiga, Godinho, Luis Moraes
EXTT9=Vovô
EXTT10=Augusto Bastos, Samy e Chico Nilma
EXTT11=R.D, Godinho e Vovô
EXTT12=Augusto Bastos, Vega Neto
EXTT13=R.D, Vovô e Godinho
PLAYORDER=
